<?xml version="1.0" standalone="no"?>
<!DOCTYPE svg PUBLIC "-//W3C//DTD SVG 20010904//EN"
 "http://www.w3.org/TR/2001/REC-SVG-20010904/DTD/svg10.dtd">
<svg version="1.0" xmlns="http://www.w3.org/2000/svg"
 width="570.000000pt" height="570.000000pt" viewBox="0 0 570.000000 570.000000"
 preserveAspectRatio="xMidYMid meet">

<g transform="translate(0.000000,570.000000) scale(0.100000,-0.100000)"
fill="#000000" stroke="none">
<path d="M1249 4915 c-33 -18 -63 -78 -54 -108 17 -55 41 -70 364 -232 181
-90 332 -168 334 -172 3 -4 57 -298 121 -653 63 -355 130 -727 149 -827 l33
-183 -57 -35 c-131 -81 -201 -197 -202 -335 -1 -86 26 -159 82 -222 30 -35
139 -98 168 -98 18 0 17 -6 -13 -35 -14 -14 -37 -50 -51 -81 -21 -46 -25 -67
-21 -122 5 -81 28 -133 85 -189 107 -104 296 -97 394 15 54 61 72 113 68 202
-4 66 -9 84 -37 129 -17 29 -32 54 -32 56 0 3 245 6 545 7 300 2 545 2 545 0
0 -2 -11 -18 -25 -36 -40 -52 -55 -100 -55 -174 0 -154 115 -271 266 -272 118
0 203 50 253 152 51 102 39 208 -34 304 l-25 32 25 16 c45 30 61 97 35 146
-28 53 -1 51 -933 44 -937 -8 -940 -8 -997 46 -26 24 -30 35 -30 78 0 61 27
105 94 150 l48 32 874 0 874 0 29 28 c27 24 49 94 235 724 183 624 204 701
195 733 -21 75 70 69 -1199 75 l-1135 5 -37 203 c-26 144 -42 210 -55 224 -24
27 -747 388 -775 388 -13 -1 -35 -7 -49 -15z m3001 -1028 c0 -7 -74 -262 -164
-567 l-164 -555 -755 -3 c-713 -2 -756 -1 -761 15 -3 10 -37 198 -76 418 -39
220 -82 460 -96 533 -13 73 -24 142 -24 153 0 19 18 19 1020 19 820 0 1020 -3
1020 -13z"/>
</g>
</svg>
